<?xml version="1.0" encoding="utf-8"?>
<!-- Generator: Adobe Illustrator 18.1.0, SVG Export Plug-In . SVG Version: 6.00 Build 0)  -->
<svg version="1.1" id="Layer_1" xmlns="http://www.w3.org/2000/svg" xmlns:xlink="http://www.w3.org/1999/xlink" x="0px" y="0px"
	 viewBox="-3.4 85 148.2 31" enable-background="new -3.4 85 148.2 31" xml:space="preserve">
<path fill="#888888" d="M112.8,103.7h-1.4c-0.2-0.6-0.4-1.2-0.7-1.7l1-1c0.3-0.3,0.3-0.9,0-1.2l-1.8-1.9c-0.3-0.3-0.9-0.3-1.2,0
	l-1,1c-0.5-0.3-1-0.5-1.6-0.7v-1.4c0-0.5-0.4-0.9-0.8-0.9h-2.5c-0.5,0-0.8,0.4-0.8,0.9v1.4c-0.6,0.2-1.1,0.4-1.6,0.7l-1-1
	c-0.3-0.3-0.9-0.3-1.2,0l-1.8,1.9c-0.3,0.3-0.3,0.9,0,1.2l1,1c-0.3,0.5-0.5,1.1-0.7,1.7h-1.4c-0.5,0-0.8,0.4-0.8,0.9v2.6
	c0,0.5,0.4,0.9,0.8,0.9h1.4c0.2,0.6,0.4,1.2,0.7,1.7l-1,1c-0.3,0.3-0.3,0.9,0,1.2l1.8,1.9c0.3,0.3,0.9,0.3,1.2,0l1-1
	c0.5,0.3,1,0.5,1.6,0.7v1.4c0,0.5,0.4,0.9,0.8,0.9h2.5c0.5,0,0.8-0.4,0.8-0.9v-1.4c0.6-0.2,1.1-0.4,1.6-0.7l1,1
	c0.3,0.3,0.9,0.3,1.2,0l1.8-1.9c0.3-0.3,0.3-0.9,0-1.2l-1-1c0.3-0.5,0.5-1.1,0.7-1.7h1.4c0.5,0,0.8-0.4,0.8-0.9v-2.6
	C113.6,104.1,113.3,103.7,112.8,103.7z M104.1,110.5c-2.4,0-4.4-2-4.4-4.5c0-2.5,1.9-4.5,4.4-4.5s4.4,2,4.4,4.5
	C108.4,108.4,106.5,110.5,104.1,110.5z"/>
<path fill="#FFFFFF" d="M115.1,94.3l0.6-1.5c0.1-0.3,0-0.6-0.3-0.7l-0.8-0.3c0-0.4,0-0.7,0-1.1l0.8-0.3c0.3-0.1,0.4-0.4,0.3-0.7
	l-0.6-1.5c-0.1-0.3-0.4-0.4-0.7-0.3l-0.8,0.3c-0.2-0.3-0.5-0.6-0.8-0.8l0.3-0.8c0.1-0.3,0-0.6-0.3-0.7l-1.4-0.6
	c-0.3-0.1-0.6,0-0.7,0.3l-0.3,0.8c-0.4,0-0.7,0-1.1,0l-0.3-0.8c-0.1-0.3-0.4-0.4-0.7-0.3l-1.4,0.6c-0.3,0.1-0.4,0.4-0.3,0.7l0.3,0.8
	c-0.3,0.2-0.5,0.5-0.8,0.8l-0.8-0.3c-0.3-0.1-0.6,0-0.7,0.3l-0.6,1.5c-0.1,0.3,0,0.6,0.3,0.7l0.8,0.3c0,0.4,0,0.7,0,1.1l-0.8,0.3
	c-0.3,0.1-0.4,0.4-0.3,0.7l0.6,1.5c0.1,0.3,0.4,0.4,0.7,0.3l0.8-0.3c0.2,0.3,0.5,0.6,0.8,0.8l-0.3,0.8c-0.1,0.3,0,0.6,0.3,0.7
	l1.4,0.6c0.3,0.1,0.6,0,0.7-0.3l0.3-0.8c0.4,0,0.7,0.1,1.1,0l0.3,0.8c0.1,0.3,0.4,0.4,0.7,0.3l1.4-0.6c0.3-0.1,0.4-0.4,0.3-0.7
	l-0.3-0.8c0.3-0.2,0.5-0.5,0.8-0.8l0.8,0.3C114.7,94.7,115,94.6,115.1,94.3z M111,93.8c-1.4,0.6-2.9-0.1-3.5-1.5
	c-0.6-1.4,0.1-3.1,1.4-3.6c1.4-0.6,2.9,0.1,3.5,1.5C113,91.6,112.4,93.2,111,93.8z"/>
<path fill="#FFFFFF" d="M20.2,102.1c0-0.6-0.6-0.6-0.6-0.6h-9c0,0-0.4,0-0.6,0.2c-0.2,0.2-0.2,0.5-0.2,0.5l0,3c0,0,0,0.1,0.2,0.3
	c0.2,0.2,0.6,0.2,0.6,0.2h3.5c0,0,0.3,0,0.4,0.2c0.2,0.1,0.1,0.4,0.1,0.4l0,0.4c0,1.4-0.5,2.5-1.4,3.4c-1,0.9-2.3,1.3-4,1.3
	c-2.3,0-4-0.7-5.1-2.2c-1.1-1.5-1.6-3.9-1.6-7.1c0-2.9,0.6-5.1,1.7-6.7c1.1-1.6,2.8-2.4,5.2-2.4c1.8,0,3,0.5,3.9,1.4
	c0.7,0.8,1.2,2,1.4,3.4c0,0.1,0,0.1,0.1,0.2c0.1,0.1,0.3,0.1,0.3,0.1l4.5-0.4c0,0,0.1,0,0.2-0.1c0.1-0.1,0.1-0.3,0.1-0.4
	c-0.3-3.1-1.3-5.1-3.1-6.6c-1.9-1.5-4.3-2.2-7.4-2.2c-4.2,0-7.3,1.3-9.5,3.8c-2.2,2.5-3.3,6-3.3,10.3c0,4.1,0.9,7.3,2.8,9.7
	c1.2,1.5,2.7,2.5,4.7,3.1c1.3,0.4,2.9,0.7,4.7,0.7c2.4-0.1,4.5-0.7,6.2-1.7c0.9-0.5,0.8,0.2,0.8,0.2L16,115c0,0,0,0.2,0.1,0.3
	c0.1,0.1,0.3,0.1,0.3,0.1l3.3,0c0,0,0.4,0,0.4-0.5c0-0.4,0-9.7,0-12.6C20.2,102.3,20.2,102.2,20.2,102.1z"/>
<path fill="#FFFFFF" d="M30.6,96c-2.7,0-5,0.8-6.8,2.5c-1.8,1.7-2.6,4.2-2.6,7.4c0,1.4,0.2,2.6,0.5,3.7c0.3,1.1,0.9,2.2,1.5,3.2
	c0.7,1,1.6,1.7,2.9,2.2c1.2,0.5,3.1,0.8,4.4,0.8c2.2,0,4.1-0.6,5.4-1.6c1.2-0.9,2-2.1,2.4-3.5c0-0.1-0.1,0.1,0.1-0.3
	c0.1-0.5,0-0.5-0.3-0.6c-0.3-0.1-3.6-0.9-3.6-0.9s-0.1,0-0.3-0.1c-0.3-0.1-0.4,0.2-0.4,0.3c-0.2,0.7-0.5,1.3-0.9,1.7
	c-0.5,0.5-1.2,0.7-2.1,0.7c-1.3,0-2.2-0.3-2.8-1c-0.5-0.5-0.8-1.2-0.9-2.2c0-0.2,0,0.1-0.1-0.5c-0.1-0.6,0.4-0.6,0.4-0.6h0.5h9.5
	c0,0-0.2,0,0.5,0c0.7,0,0.6-0.1,0.6-0.3c0-0.2,0.1-1.3,0.1-2.2c0-2.8-0.7-5-2-6.5C35.5,96.7,33.4,96,30.6,96z M32.8,103.8
	c-0.2,0-0.6,0-0.6,0l-4,0c0,0-0.7,0-0.9,0s-0.2-0.2-0.2-0.3c0.1-1.1,0.4-2,0.9-2.5c0.6-0.6,1.3-0.9,2.2-0.9c1.8,0,2.7,1.2,2.8,3.5
	C33,103.6,33,103.8,32.8,103.8z"/>
<path fill="#FFFFFF" d="M70.3,96.3c-0.7,0-1.2,0.1-1.7,0.2c-1.5,0.3-2.8,1.2-3.9,2.5c-0.2,0.2-0.7,1.2-0.8-0.8c0-1.2,0-1.4-1.7-1.4
	c-1.5,0-1.9,0-1.9,0S59,96.8,59,97.9c0,1.2,0,1.9,0,1.9s0,12.4,0,14.1c0,1.9,0.1,1.9,1.4,1.9c1.2,0,1.6,0,2.7,0
	c1.5,0,1.4-0.1,1.4-1.9c0-1.4,0-2.4,0-2.4s0-6,0-6.9c0-0.9,0.4-1.5,0.9-1.7c0.3-0.2,0.7-0.4,1-0.5c0.4-0.2,0.9-0.3,1.4-0.4
	c0.4-0.1,1.6-0.2,2.5-0.4s0.8-1,0.8-1l0-1.9c0,0,0,0,0-1C71.1,96.6,71.2,96.3,70.3,96.3z"/>
<path fill="#888888" d="M92.4,89.3c-1,0-2.5,0-3.6,0c-1.1,0-1.1,0.1-1.1,1.1c0,1,0,6.8,0,8.2c0,1.5,0,1.5-1.7,1.5s-5.3,0-6.9,0
	c-1.5,0-1.6,0-1.6-1.6c0-1.7,0-5.9,0-7.5c0-1.6-0.1-1.6-1.3-1.6c-1.3,0-1.3,0-2.8,0c-1.5,0-1.5,0.1-1.5,1.8c0,1.7,0,21.7,0,23.3
	c0,1.4,0,1.5,1.2,1.5c1.2,0,1.8,0,3.1,0c1.3,0,1.3,0,1.3-1.2c0-1.2,0-6.9,0-8.2s0-1.4,1.6-1.4c1.5,0,5.5,0,7,0c1.5,0,1.6,0,1.6,1.6
	c0,1.6,0,6.8,0,8c0,1.3,0.1,1.3,1.4,1.3c1.3,0,1.8,0,3.1,0c1.2,0,1.2,0,1.2-1.4c0-1.4,0-22.8,0-24C93.5,89.3,93.4,89.3,92.4,89.3z"
	/>
<path fill="#888888" d="M127.9,105c-0.7-0.4-1.4-0.7-2.1-0.9c-0.6-0.2-1.5-0.4-2.5-0.6c-1.4-0.2-2.4-0.5-3-0.8
	c-0.6-0.2-0.9-0.7-0.9-1.3c0-1.1,0.8-1.7,2.4-1.7c1,0,1.7,0.2,2.2,0.7c0.3,0.3,0.6,0.7,0.8,1.3c0.1,0.2,0.3,0.7,1,0.5
	c0.6-0.2,2.4-0.7,3.2-1c0.8-0.3,0.5-0.8,0.4-1c-1.1-2.6-3.3-4.1-6.7-4.2c-0.2,0-1.2,0-1.5,0c-1.9,0.1-3.4,0.7-4.8,1.6
	c-1.5,1.1-2.3,2.6-2.3,4.6c0,1.1,0.2,2,0.6,2.8c0.4,0.8,0.9,1.4,1.7,1.8c0.7,0.4,1.4,0.7,2.1,0.9c0.6,0.2,1.5,0.4,2.5,0.6
	c1.3,0.2,2.2,0.5,2.8,0.7c0.5,0.2,0.8,0.7,0.8,1.3c0,1.2-0.9,1.8-2.8,1.8c-1.2,0-2.1-0.3-2.6-0.8c-0.4-0.4-0.7-0.8-0.9-1.3
	c-0.1-0.2-0.3-0.8-1.1-0.5c-0.8,0.2-2.1,0.6-3,1c-0.8,0.3-0.8,0.3-0.5,1.3c0.3,0.9,1.2,2.1,2.3,2.8c1.4,0.9,3.2,1.4,5.6,1.4
	c2.4,0,4.5-0.5,6.1-1.6c1.6-1.1,2.4-2.7,2.4-4.8c0-1.1-0.2-2-0.6-2.7C129.2,106,128.6,105.4,127.9,105z"/>
<path fill="#888888" d="M144.1,111.3c-0.1-0.6-0.5-0.4-0.8-0.3c-0.8,0.4-1.7,0.6-2.6,0.6c-0.8,0-1.4-0.2-1.8-0.6
	c-0.3-0.4-0.5-1-0.5-2c0,0,0-7.4,0-8c0-0.6,0.1-0.6,0.7-0.6c0.6,0,3,0,3.7,0c0.7,0,0.7,0,0.7-0.6c0-0.6,0-2.1,0-2.7
	c0-0.6,0-0.6-0.8-0.6c-0.8,0-3,0-3.6,0c-0.6,0-0.7,0-0.7-0.7c0-0.7,0-3.9,0-4.8c0-0.9-0.1-0.9-0.9-0.8c-0.8,0.1-3.2,0.4-3.9,0.5
	c-0.7,0.1-0.7,0.2-0.7,1c0,0.8,0,3.5,0,4.1c0,0.6-0.1,0.6-0.7,0.6s-0.8,0-1.5,0c-0.7,0-0.7,0.1-0.7,0.7c0,0.4,0,1.8,0,2.6
	c0,0.4,0.3,0.7,0.6,0.7c0.5,0,1.3,0,1.7,0c0.6,0,0.6,0.1,0.6,0.6c0,0.5,0,8.7,0,8.7c0,2.2,0.5,3.8,1.5,4.7c1.1,1,2.6,1.5,4.6,1.5
	c1.1,0,2.2-0.1,3.2-0.4c0.7-0.2,1.3-0.4,1.7-0.6c0.2-0.1,0.6-0.3,0.5-1C144.5,113.1,144.2,111.9,144.1,111.3z"/>
<path fill="#FFFFFF" d="M58.1,113c0,0,0-0.3,0-0.6c0-0.3-0.1-0.3-0.8-0.2c-0.1,0-0.3,0-0.4,0c-0.5,0-0.8-0.1-0.9-0.3
	c-0.1-0.2-0.2-0.6-0.2-1.1l0.1-8c0-2.3-0.6-4.1-1.9-5.1c-1.3-1.1-3.2-1.6-5.8-1.6c-4.5,0-7.2,1.7-8,5.1c0,0.2,0,0.6,0.5,0.7
	c0.4,0.1,0.8,0.2,0.8,0.2l1.5,0.3c0,0,0.7,0.1,1.2,0.2c0.5,0.1,0.7-0.3,0.8-0.4c0.2-0.6,0.4-1.1,0.8-1.5c0.4-0.4,1-0.6,2-0.6
	c1.1,0,1.9,0.3,2.2,0.8c0.3,0.6,0.5,1.4,0.5,2.6c0,0,0.1,0.4-0.3,0.6c-0.3,0.1-0.5,0.1-0.7,0.1c-6.7,0.1-10.1,2.4-10.1,6.7
	c0,0.6,0.1,1.1,0.2,1.6c0.1,0.5,0.4,1.1,0.8,1.6c0.4,0.6,1,1,1.8,1.3c0.8,0.3,1.8,0.5,2.9,0.5c2,0,3.6-0.5,4.8-1.5
	c0.2-0.2,0.3-0.2,0.5-0.4c0.5-0.5,0.6,0,0.7,0.2c0.6,1.1,1.8,1.7,3.7,1.7c1,0,1.9-0.1,2.7-0.4c0.3-0.1,0.9-0.2,0.8-0.8
	c0-0.6,0-0.7,0-0.7L58.1,113z M50.4,110.1c0,0.9-0.3,1-0.5,1.1c-0.7,0.5-1.6,0.8-2.7,0.8c-1.5,0-2.2-0.7-2.2-2.1
	c0-0.9,0.4-1.5,1.2-1.9c0.8-0.4,2.3-0.6,3.4-0.6c1.1,0,0.9,0.3,0.9,0.6C50.4,108.3,50.4,109.2,50.4,110.1z"/>
</svg>
